<?xml version="1.0" encoding="UTF-8" standalone="no"?>
<!-- Generator: Adobe Illustrator 16.0.0, SVG Export Plug-In . SVG Version: 6.00 Build 0)  -->

<svg
   xmlns:dc="http://purl.org/dc/elements/1.1/"
   xmlns:cc="http://creativecommons.org/ns#"
   xmlns:rdf="http://www.w3.org/1999/02/22-rdf-syntax-ns#"
   xmlns:svg="http://www.w3.org/2000/svg"
   xmlns="http://www.w3.org/2000/svg"
   xmlns:sodipodi="http://sodipodi.sourceforge.net/DTD/sodipodi-0.dtd"
   xmlns:inkscape="http://www.inkscape.org/namespaces/inkscape"
   version="1.1"
   id="Layer_1"
   x="0px"
   y="0px"
   width="24"
   height="24"
   viewBox="0 0 23.999999 23.999999"
   xml:space="preserve"
   sodipodi:docname="instagram.svg"
   inkscape:version="0.92.5 (2060ec1f9f, 2020-04-08)"><metadata
   id="metadata45"><rdf:RDF><cc:Work
       rdf:about=""><dc:format>image/svg+xml</dc:format><dc:type
         rdf:resource="http://purl.org/dc/dcmitype/StillImage" /><dc:title></dc:title></cc:Work></rdf:RDF></metadata><defs
   id="defs43" /><sodipodi:namedview
   pagecolor="#ffffff"
   bordercolor="#666666"
   borderopacity="1"
   objecttolerance="10"
   gridtolerance="10"
   guidetolerance="10"
   inkscape:pageopacity="0"
   inkscape:pageshadow="2"
   inkscape:window-width="1440"
   inkscape:window-height="837"
   id="namedview41"
   showgrid="false"
   inkscape:zoom="11.167434"
   inkscape:cx="9.6299317"
   inkscape:cy="1.0761747"
   inkscape:window-x="0"
   inkscape:window-y="40"
   inkscape:window-maximized="1"
   inkscape:current-layer="Layer_1" />
<g
   id="g8"
   transform="matrix(0.1414144,0,0,0.1414144,0,0.09119949)"
   style="fill:#ffffff">
	<path
   d="M 122.406,0 H 46.654 C 20.929,0 0,20.93 0,46.655 v 75.752 c 0,25.726 20.929,46.655 46.654,46.655 h 75.752 c 25.727,0 46.656,-20.93 46.656,-46.655 V 46.655 C 169.063,20.93 148.133,0 122.406,0 Z m 31.657,122.407 c 0,17.455 -14.201,31.655 -31.656,31.655 H 46.654 C 29.2,154.063 15,139.862 15,122.407 V 46.655 C 15,29.201 29.2,15 46.654,15 h 75.752 c 17.455,0 31.656,14.201 31.656,31.655 v 75.752 z"
   id="path2"
   inkscape:connector-curvature="0"
   style="fill:#ffffff" />
	<path
   d="m 84.531,40.97 c -24.021,0 -43.563,19.542 -43.563,43.563 0,24.02 19.542,43.561 43.563,43.561 24.021,0 43.563,-19.541 43.563,-43.561 0,-24.021 -19.542,-43.563 -43.563,-43.563 z m 0,72.123 c -15.749,0 -28.563,-12.812 -28.563,-28.561 0,-15.75 12.813,-28.563 28.563,-28.563 15.75,0 28.563,12.813 28.563,28.563 0,15.749 -12.814,28.561 -28.563,28.561 z"
   id="path4"
   inkscape:connector-curvature="0"
   style="fill:#ffffff" />
	<path
   d="m 129.921,28.251 c -2.89,0 -5.729,1.17 -7.77,3.22 -2.051,2.04 -3.23,4.88 -3.23,7.78 0,2.891 1.18,5.73 3.23,7.78 2.04,2.04 4.88,3.22 7.77,3.22 2.9,0 5.73,-1.18 7.78,-3.22 2.05,-2.05 3.22,-4.89 3.22,-7.78 0,-2.9 -1.17,-5.74 -3.22,-7.78 -2.04,-2.05 -4.88,-3.22 -7.78,-3.22 z"
   id="path6"
   inkscape:connector-curvature="0"
   style="fill:#ffffff" />
</g>
<g
   id="g10"
   transform="translate(0,-145.063)">
</g>
<g
   id="g12"
   transform="translate(0,-145.063)">
</g>
<g
   id="g14"
   transform="translate(0,-145.063)">
</g>
<g
   id="g16"
   transform="translate(0,-145.063)">
</g>
<g
   id="g18"
   transform="translate(0,-145.063)">
</g>
<g
   id="g20"
   transform="translate(0,-145.063)">
</g>
<g
   id="g22"
   transform="translate(0,-145.063)">
</g>
<g
   id="g24"
   transform="translate(0,-145.063)">
</g>
<g
   id="g26"
   transform="translate(0,-145.063)">
</g>
<g
   id="g28"
   transform="translate(0,-145.063)">
</g>
<g
   id="g30"
   transform="translate(0,-145.063)">
</g>
<g
   id="g32"
   transform="translate(0,-145.063)">
</g>
<g
   id="g34"
   transform="translate(0,-145.063)">
</g>
<g
   id="g36"
   transform="translate(0,-145.063)">
</g>
<g
   id="g38"
   transform="translate(0,-145.063)">
</g>
</svg>