<?xml version="1.0" encoding="iso-8859-1"?>
<!-- Generator: Adobe Illustrator 19.0.0, SVG Export Plug-In . SVG Version: 6.00 Build 0)  -->
<svg xmlns="http://www.w3.org/2000/svg" xmlns:xlink="http://www.w3.org/1999/xlink" version="1.1" id="Layer_1" x="0px" y="0px" viewBox="0 0 512.001 512.001" style="enable-background:new 0 0 512.001 512.001;" xml:space="preserve" width="512px" height="512px">
<g>
	<g>
		<path d="M265.615,106.79c-22.089-10.925-48.464-10.925-70.553,0c-2.918,1.443-4.764,4.416-4.764,7.671v163.091    c0,1.697,0.504,3.356,1.45,4.766l31.483,46.957c1.589,2.37,4.255,3.792,7.107,3.792c2.852,0,5.519-1.422,7.107-3.792    l31.483-46.957c0.945-1.409,1.45-3.068,1.45-4.766V114.461C270.379,111.206,268.533,108.234,265.615,106.79z M207.414,156.254    c4.644-1.826,9.469-3.074,14.368-3.744v110.417c-4.841,0.47-9.647,1.35-14.368,2.621V156.254z M230.34,309.142l-3.847-5.737    c1.26-0.228,2.543-0.358,3.845-0.358c1.303,0,2.588,0.13,3.849,0.358L230.34,309.142z M244.182,288.496    c-4.383-1.689-9.061-2.565-13.844-2.565c-4.78,0-9.457,0.876-13.84,2.565l-4.361-6.505c11.908-3.158,24.499-3.158,36.406,0    L244.182,288.496z M253.264,265.549c-4.72-1.271-9.526-2.151-14.368-2.621V152.51c4.898,0.67,9.724,1.918,14.368,3.744V265.549z     M253.264,138.152c-14.914-4.453-30.936-4.453-45.85,0v-18.129c14.667-5.763,31.185-5.763,45.85,0V138.152z" fill="#D80027"/>
	</g>
</g>
<g>
	<g>
		<path d="M420.169,254.734h-20.497v-146.24c0-4.726-3.83-8.558-8.558-8.558h-32.463V44.465c0-4.726-3.83-8.557-8.558-8.557h-46.505    V8.558c0-4.726-3.83-8.558-8.557-8.558h-92.234c-4.726,0-8.557,3.831-8.557,8.558v27.35h-77.178    c-18.63,0-33.787,15.157-33.787,33.787v350.04v0.001c0,9.018,3.517,17.501,9.901,23.885c6.384,6.384,14.867,9.901,23.886,9.901    h10.873v49.922c0,4.726,3.831,8.558,8.558,8.558h83.711c4.726,0,8.558-3.831,8.558-8.558v-18.228h18.654    c4.726,0,8.558-3.831,8.558-8.557v-23.137h94.117c4.727,0,8.558-3.831,8.558-8.558v-50.455c0-0.001,0-0.001,0-0.001l0.006-0.001    v-4.197h61.517c4.727,0,8.557-3.831,8.557-8.558V263.293C428.727,258.566,424.895,254.734,420.169,254.734z M211.355,17.115    h75.119v18.792h-75.119V17.115z M211.645,494.885h-66.596v-66.596h10.096v48.368c0,4.726,3.831,8.558,8.558,8.558h47.943V494.885z     M238.856,468.1h-66.597v-39.807h66.597V468.1z M341.531,436.405h-85.559v-8.114h35.637c4.727,0,8.558-3.832,8.558-8.558    c0-4.726-3.83-8.558-8.558-8.558l-155.117-0.002c-4.726,0-8.558,3.831-8.558,8.557v16.674h-10.873    c-4.447,0-8.632-1.735-11.783-4.887c-3.151-3.151-4.887-7.337-4.887-11.783c0-9.192,7.478-16.67,16.67-16.67h224.47V436.405z     M341.535,385.95H117.061c-6.06,0-11.748,1.612-16.67,4.417V69.695c-0.001-6.062,3.262-11.363,8.114-14.282v90.798    c0,4.726,3.832,8.558,8.558,8.558c4.726,0,8.558-3.832,8.558-8.558V53.023h215.916V385.95z M358.652,117.051h23.905v229.395    h-23.905V117.051z M411.611,373.193h-52.96v-9.632h32.463c4.727,0,8.558-3.831,8.558-8.558v-83.154h11.939V373.193z" fill="#D80027"/>
	</g>
</g>
<g>
	<g>
		<path d="M117.062,187.285c-4.726,0-8.558,3.831-8.558,8.558v133.491c0,4.727,3.832,8.559,8.558,8.559    c4.726,0,8.558-3.831,8.558-8.558V195.842C125.62,191.116,121.788,187.285,117.062,187.285z" fill="#D80027"/>
	</g>
</g>
<g>
</g>
<g>
</g>
<g>
</g>
<g>
</g>
<g>
</g>
<g>
</g>
<g>
</g>
<g>
</g>
<g>
</g>
<g>
</g>
<g>
</g>
<g>
</g>
<g>
</g>
<g>
</g>
<g>
</g>
</svg>
