<?xml version="1.0" encoding="UTF-8" standalone="no"?>
<!-- Generator: Adobe Illustrator 18.1.1, SVG Export Plug-In . SVG Version: 6.00 Build 0)  -->

<svg
   xmlns:dc="http://purl.org/dc/elements/1.1/"
   xmlns:cc="http://creativecommons.org/ns#"
   xmlns:rdf="http://www.w3.org/1999/02/22-rdf-syntax-ns#"
   xmlns:svg="http://www.w3.org/2000/svg"
   xmlns="http://www.w3.org/2000/svg"
   xmlns:sodipodi="http://sodipodi.sourceforge.net/DTD/sodipodi-0.dtd"
   xmlns:inkscape="http://www.inkscape.org/namespaces/inkscape"
   version="1.1"
   id="Capa_1"
   x="0px"
   y="0px"
   viewBox="0 0 23.999999 23.999999"
   xml:space="preserve"
   sodipodi:docname="facebook.svg"
   width="24"
   height="24"
   inkscape:version="0.92.5 (2060ec1f9f, 2020-04-08)"><metadata
   id="metadata40"><rdf:RDF><cc:Work
       rdf:about=""><dc:format>image/svg+xml</dc:format><dc:type
         rdf:resource="http://purl.org/dc/dcmitype/StillImage" /><dc:title></dc:title></cc:Work></rdf:RDF></metadata><defs
   id="defs38" /><sodipodi:namedview
   pagecolor="#ffffff"
   bordercolor="#666666"
   borderopacity="1"
   objecttolerance="10"
   gridtolerance="10"
   guidetolerance="10"
   inkscape:pageopacity="0"
   inkscape:pageshadow="2"
   inkscape:window-width="1440"
   inkscape:window-height="837"
   id="namedview36"
   showgrid="false"
   inkscape:zoom="12.169731"
   inkscape:cx="17.107652"
   inkscape:cy="11.761694"
   inkscape:window-x="0"
   inkscape:window-y="40"
   inkscape:window-maximized="1"
   inkscape:current-layer="Capa_1" />
<g
   id="g3"
   transform="matrix(0.15254233,0,0,0.15254233,0.77371016,0.33472524)"
   style="fill:#ffffff">
	<path
   id="f_1_"
   style="fill:#ffffff"
   d="M 89.584,155.139 V 84.378 h 23.742 l 3.562,-27.585 H 89.584 V 39.184 c 0,-7.984 2.208,-13.425 13.67,-13.425 l 14.595,-0.006 V 1.08 C 115.325,0.752 106.661,0 96.577,0 75.52,0 61.104,12.853 61.104,36.452 V 56.793 H 37.29 v 27.585 h 23.814 v 70.761 z"
   inkscape:connector-curvature="0" />
</g>
<g
   id="g5"
   transform="translate(0,-131.13901)">
</g>
<g
   id="g7"
   transform="translate(0,-131.13901)">
</g>
<g
   id="g9"
   transform="translate(0,-131.13901)">
</g>
<g
   id="g11"
   transform="translate(0,-131.13901)">
</g>
<g
   id="g13"
   transform="translate(0,-131.13901)">
</g>
<g
   id="g15"
   transform="translate(0,-131.13901)">
</g>
<g
   id="g17"
   transform="translate(0,-131.13901)">
</g>
<g
   id="g19"
   transform="translate(0,-131.13901)">
</g>
<g
   id="g21"
   transform="translate(0,-131.13901)">
</g>
<g
   id="g23"
   transform="translate(0,-131.13901)">
</g>
<g
   id="g25"
   transform="translate(0,-131.13901)">
</g>
<g
   id="g27"
   transform="translate(0,-131.13901)">
</g>
<g
   id="g29"
   transform="translate(0,-131.13901)">
</g>
<g
   id="g31"
   transform="translate(0,-131.13901)">
</g>
<g
   id="g33"
   transform="translate(0,-131.13901)">
</g>
</svg>